<?xml version='1.0' encoding='iso-8859-1'?>
<!DOCTYPE svg PUBLIC '-//W3C//DTD SVG 1.1//EN' 'http://www.w3.org/Graphics/SVG/1.1/DTD/svg11.dtd'>
<svg version="1.1" xmlns="http://www.w3.org/2000/svg" viewBox="0 0 455.308 455.308" xmlns:xlink="http://www.w3.org/1999/xlink" enable-background="new 0 0 455.308 455.308">
  <path d="M368.692,141.038C368.692,63.269,305.422,0,227.654,0S86.616,63.269,86.616,141.038  c0,71.844,53.997,131.308,123.538,139.953v70.644h-44.27c-9.665,0-17.5,7.835-17.5,17.5s7.835,17.5,17.5,17.5h44.27v51.173  c0,9.665,7.835,17.5,17.5,17.5s17.5-7.835,17.5-17.5v-51.173h44.269c9.665,0,17.5-7.835,17.5-17.5s-7.835-17.5-17.5-17.5h-44.269  v-70.644C314.695,272.346,368.692,212.882,368.692,141.038z M121.616,141.038C121.616,82.568,169.184,35,227.654,35  s106.038,47.568,106.038,106.038s-47.568,106.038-106.038,106.038S121.616,199.508,121.616,141.038z"/>
</svg>
