<?xml version="1.0" encoding="iso-8859-1"?>
<!-- Generator: Adobe Illustrator 19.0.0, SVG Export Plug-In . SVG Version: 6.00 Build 0)  -->
<svg version="1.1" id="Layer_1" xmlns="http://www.w3.org/2000/svg" xmlns:xlink="http://www.w3.org/1999/xlink" x="0px" y="0px"
	 viewBox="0 0 499.996 499.996" style="enable-background:new 0 0 499.996 499.996;" xml:space="preserve">
<g>
	<g>
		<path d="M499.292,19.184c-0.1-0.528-0.384-1.036-0.548-1.54l-0.332-0.908c-0.184-0.648-0.404-1.292-0.664-1.936
			c-0.26-0.624-0.596-1.204-0.92-1.784l-0.468-0.848c-0.236-0.464-0.484-0.928-0.784-1.388c-1.728-2.58-3.916-4.76-6.492-6.488
			c-0.424-0.284-0.876-0.516-1.324-0.748L487,3.132c-0.628-0.356-1.256-0.7-1.94-0.992c-0.584-0.236-1.176-0.412-1.776-0.58
			l-0.932-0.28c-0.548-0.184-1.1-0.352-1.672-0.468c-1.3-0.256-2.668-0.508-4.1-0.536c-0.16-0.016-0.344-0.136-0.464-0.136h-97.44
			c-12.912,0-23.412,10.528-23.412,23.436c0,12.912,10.5,23.436,23.412,23.436h40.928L315.208,151.476
			c-34.208-26.868-76.764-41.584-120.24-41.584C87.46,109.888,0,197.372,0,304.88c0,107.5,87.46,194.976,194.968,194.976
			s194.972-87.46,194.972-194.968c0-43.472-14.544-86.024-41.412-120.236L453.124,80.276v40.928
			c0,12.908,10.528,23.412,23.436,23.412c12.908,0,23.436-10.5,23.436-23.412V23.768C500,22.252,499.596,20.708,499.292,19.184z
			 M194.968,453.044c-81.692,0-148.152-66.46-148.152-148.148c0-81.696,66.46-148.156,148.152-148.156
			c81.688,0,148.156,66.46,148.156,148.156C343.12,386.584,276.656,453.044,194.968,453.044z"/>
	</g>
</g>
<g>
</g>
<g>
</g>
<g>
</g>
<g>
</g>
<g>
</g>
<g>
</g>
<g>
</g>
<g>
</g>
<g>
</g>
<g>
</g>
<g>
</g>
<g>
</g>
<g>
</g>
<g>
</g>
<g>
</g>
</svg>
