<?xml version="1.0" encoding="iso-8859-1"?>
<!-- Generator: Adobe Illustrator 18.0.0, SVG Export Plug-In . SVG Version: 6.00 Build 0)  -->
<!DOCTYPE svg PUBLIC "-//W3C//DTD SVG 1.1//EN" "http://www.w3.org/Graphics/SVG/1.1/DTD/svg11.dtd">
<svg version="1.1" id="Capa_1" xmlns="http://www.w3.org/2000/svg" xmlns:xlink="http://www.w3.org/1999/xlink" x="0px" y="0px"
	 viewBox="0 0 57.762 57.762" style="enable-background:new 0 0 57.762 57.762;" xml:space="preserve">
<path d="M54.677,31.545c-1.702,0-3.085,1.382-3.084,3.084v12.602l-11.39-11.39l6.171-6.171c1.204-1.204,1.204-3.158,0-4.362
	c-1.204-1.204-3.158-1.204-4.362,0l-6.171,6.171l-4.58-4.58c4.621-6.682,3.964-15.938-1.981-21.882
	c-6.689-6.689-17.574-6.689-24.263,0c-6.689,6.689-6.689,17.574,0,24.263c5.945,5.945,15.2,6.602,21.882,1.981l4.58,4.58
	l-6.171,6.171c-1.204,1.204-1.204,3.158,0,4.362c1.204,1.204,3.158,1.204,4.362,0l6.171-6.171l11.39,11.39H34.629
	c-0.851,0-1.623,0.345-2.181,0.903c-0.558,0.558-0.904,1.33-0.903,2.181c0,1.704,1.381,3.085,3.085,3.085h20.048
	c1.702,0.001,3.085-1.382,3.084-3.084V34.629C57.762,32.926,56.381,31.545,54.677,31.545z M9.379,24.919
	c-4.284-4.284-4.284-11.255,0-15.54c4.284-4.284,11.255-4.284,15.54,0c4.284,4.284,4.284,11.255,0,15.54
	C20.634,29.203,13.663,29.203,9.379,24.919z"/>
<g>
</g>
<g>
</g>
<g>
</g>
<g>
</g>
<g>
</g>
<g>
</g>
<g>
</g>
<g>
</g>
<g>
</g>
<g>
</g>
<g>
</g>
<g>
</g>
<g>
</g>
<g>
</g>
<g>
</g>
</svg>
